<svg width="177" height="158" viewBox="0 0 177 158" fill="none" xmlns="http://www.w3.org/2000/svg">
<g clip-path="url(#clip0_101_3)">
<path d="M25.73 126.884L20.349 123.443C20.1018 120.422 20.0246 117.389 20.1177 114.359L22.909 115.075L20.1539 113.313C20.3061 109.567 20.6431 107.096 20.6431 107.096C20.6431 107.096 31.5228 114.191 38.4617 123.807L37.2785 131.94L40.1003 126.253C40.822 127.413 41.4704 128.617 42.0416 129.859C47.7586 142.397 48.3141 154.436 43.2823 156.748C38.2506 159.06 29.5371 150.77 23.8201 138.232C22.0478 134.345 21.0695 129.876 20.5626 125.559L25.73 126.884Z" fill="#F0F0F0"/>
<path d="M14.6768 138.987L8.29845 138.833C6.53123 136.375 4.90353 133.819 3.42308 131.177L6.18121 130.341L2.9155 130.262C1.1172 126.977 0.133545 124.687 0.133545 124.687C0.133545 124.687 13.1 125.114 23.9914 129.746L27.166 137.322L26.6532 130.989C27.8683 131.607 29.0435 132.302 30.1717 133.068C41.5215 140.835 48.1957 150.853 45.0788 155.443C41.962 160.034 30.2345 157.459 18.8847 149.692C15.3661 147.284 12.2275 143.966 9.57078 140.534L14.6768 138.987Z" fill="#F0F0F0"/>
<path d="M105.583 44.3509L100.585 43.7605L98.8206 59.1094L94.3166 80.305C93.6903 80.6111 93.1793 81.1121 92.8595 81.7334C92.5398 82.3546 92.4284 83.063 92.542 83.7529C92.6556 84.4428 92.9882 85.0775 93.4901 85.5624C93.992 86.0473 94.6365 86.3565 95.3276 86.444C96.0187 86.5315 96.7194 86.3926 97.3256 86.0479C97.9317 85.7033 98.4107 85.1714 98.6914 84.5314C98.9721 83.8914 99.0394 83.1775 98.8833 82.496C98.7272 81.8145 98.356 81.2018 97.825 80.7491L102.349 68.2597L105.583 44.3509Z" fill="#FFB6B6"/>
<path d="M112.844 153.774H108.726L106.767 137.828L112.845 137.828L112.844 153.774Z" fill="#FFB6B6"/>
<path d="M113.894 157.782L100.616 157.781V157.613C100.616 156.237 101.16 154.917 102.13 153.944C103.099 152.971 104.413 152.424 105.784 152.424H105.784L113.894 152.425L113.894 157.782Z" fill="#2F2E41"/>
<path d="M144.448 151.52L140.405 152.303L135.469 137.019L141.437 135.863L144.448 151.52Z" fill="#FFB6B6"/>
<path d="M146.237 155.254L133.199 157.782L133.167 157.616C132.907 156.265 133.193 154.866 133.96 153.726C134.728 152.586 135.916 151.799 137.261 151.538L137.262 151.538L145.225 149.994L146.237 155.254Z" fill="#2F2E41"/>
<path d="M106.387 19.1975L108.78 23.8062L126.7 19.8381L124.737 10.9025C123.183 3.82975 116.954 -1.27821 109.909 0.281749C102.864 1.8417 99.5762 8.75468 101.13 15.8275L104.018 24.8605L106.94 24.2135L106.387 19.1975Z" fill="#2F2E41"/>
<path d="M99.9967 70.0307C99.9967 70.0307 98.2326 78.8858 100.585 91.8733C102.937 104.861 103.525 110.469 103.525 110.469C103.525 110.469 101.761 112.535 102.937 113.716C104.113 114.897 102.937 117.258 102.937 117.258L105.583 145.89L114.698 144.414L113.522 117.553C113.522 117.553 114.698 115.192 114.11 114.601C113.522 114.011 114.698 110.469 114.698 110.469L116.168 82.4279L125.282 113.126C125.282 113.126 124.4 114.306 125.282 115.192C126.165 116.077 127.929 120.505 127.929 120.505L133.809 141.167L143.218 139.396L137.925 115.782C137.925 115.782 138.513 114.306 137.631 113.421C137.374 113.15 137.186 112.82 137.084 112.46C136.981 112.101 136.967 111.721 137.043 111.355C137.043 111.355 137.925 110.469 136.749 109.288C135.573 108.108 134.985 103.385 134.985 103.385C134.985 103.385 134.103 71.8017 131.163 70.0307C128.223 68.2597 99.9967 70.0307 99.9967 70.0307Z" fill="#2F2E41"/>
<path d="M113.291 21.1914C117.838 21.1914 121.524 17.4912 121.524 12.9267C121.524 8.36216 117.838 4.6619 113.291 4.6619C108.745 4.6619 105.059 8.36216 105.059 12.9267C105.059 17.4912 108.745 21.1914 113.291 21.1914Z" fill="#FFB6B6"/>
<path d="M124.893 23.5061C124.893 23.5061 130.869 22.8034 132.633 24.5744L130.869 60.2901C130.869 60.2901 132.045 61.1756 131.457 63.2418C131.115 64.5979 131.115 66.018 131.457 67.3742C131.457 67.3742 133.221 69.4404 132.339 70.3259C131.457 71.2114 99.7027 70.621 99.7027 70.621C99.7027 70.621 98.5266 68.5548 100.291 67.3742C102.055 66.1935 101.173 62.9466 101.173 62.9466C101.173 62.9466 100.585 62.0611 102.055 60.5852C103.525 59.1094 104.701 47.0074 104.701 47.0074L100.879 32.2489C100.879 32.2489 104.726 27.889 109.124 27.56L124.893 23.5061Z" fill="#E6E6E6"/>
<path d="M105.434 32.452L100.879 32.2489C100.879 32.2489 98.2326 37.5619 97.9386 42.2847L96.3193 59.9028L106.759 61.4708L105.434 32.452Z" fill="#E6E6E6"/>
<path d="M106.238 13.3365L103.18 9.38661C103 8.55498 103.154 7.6855 103.611 6.96818C104.067 6.25086 104.788 5.74404 105.615 5.55848L117.168 3.00038C117.996 2.81934 118.862 2.97485 119.577 3.43293C120.291 3.89101 120.796 4.61441 120.981 5.44505L120.987 5.47359L120.16 10.2433L120.015 10.2172C112.845 8.93391 110.803 9.38531 106.355 13.2355L106.238 13.3365Z" fill="#2F2E41"/>
<path d="M137.006 76.4478L136.455 53.206L135.867 36.6764L128.811 37.5619L132.6 77.0693C132.197 77.5774 131.955 78.1952 131.905 78.8429C131.856 79.4905 132.001 80.1383 132.321 80.7024C132.642 81.2665 133.124 81.721 133.705 82.0072C134.286 82.2933 134.939 82.398 135.58 82.3076C136.221 82.2172 136.82 81.936 137.3 81.5002C137.779 81.0644 138.118 80.4941 138.272 79.8631C138.425 79.2321 138.387 78.5693 138.161 77.9604C137.936 77.3516 137.533 76.8247 137.006 76.4478Z" fill="#FFB6B6"/>
<path d="M127.485 25.0727L132.633 24.5744C132.633 24.5744 133.515 24.5744 134.397 27.5261C135.279 30.4778 140.128 61.6739 140.128 61.6739L129.399 62.6514L127.485 25.0727Z" fill="#E6E6E6"/>
<path d="M95.5043 61.9517H94.8163V43.031C94.8163 41.5929 94.5342 40.1689 93.986 38.8403C93.4378 37.5117 92.6343 36.3045 91.6214 35.2876C90.6085 34.2708 89.406 33.4641 88.0826 32.9138C86.7592 32.3635 85.3407 32.0802 83.9083 32.0802H43.9785C42.546 32.0802 41.1276 32.3635 39.8042 32.9138C38.4807 33.4641 37.2782 34.2707 36.2653 35.2876C35.2524 36.3045 34.4489 37.5117 33.9007 38.8403C33.3526 40.1689 33.0704 41.5929 33.0704 43.031V146.831C33.0704 149.736 34.2196 152.521 36.2653 154.575C38.311 156.628 41.0855 157.782 43.9785 157.782H83.9082C86.8012 157.782 89.5757 156.628 91.6214 154.575C93.6671 152.521 94.8163 149.736 94.8163 146.831V75.4197H95.5043V61.9517Z" fill="#3F3D56"/>
<path d="M84.3484 34.9292H79.1362C79.3759 35.5192 79.4674 36.1593 79.4026 36.7931C79.3379 37.4269 79.1188 38.035 78.7648 38.5638C78.4108 39.0926 77.9327 39.5259 77.3726 39.8255C76.8125 40.1251 76.1876 40.2819 75.553 40.2819H52.6777C52.0431 40.2819 51.4182 40.1251 50.8581 39.8255C50.298 39.5259 49.8199 39.0926 49.4659 38.5638C49.1119 38.035 48.8928 37.4269 48.8281 36.7931C48.7633 36.1593 48.8548 35.5192 49.0945 34.9292H44.2263C42.0659 34.9292 39.9939 35.7908 38.4662 37.3245C36.9385 38.8581 36.0803 40.9382 36.0803 43.1071V146.755C36.0803 147.829 36.291 148.892 36.7004 149.885C37.1097 150.877 37.7098 151.778 38.4662 152.538C39.2226 153.297 40.1206 153.899 41.109 154.31C42.0973 154.721 43.1566 154.933 44.2263 154.933H84.3484C85.4181 154.933 86.4774 154.721 87.4657 154.31C88.454 153.899 89.352 153.297 90.1085 152.538C90.8649 151.778 91.4649 150.877 91.8743 149.885C92.2837 148.892 92.4944 147.829 92.4944 146.755V43.1071C92.4944 42.0332 92.2837 40.9698 91.8743 39.9776C91.4649 38.9854 90.8649 38.0839 90.1085 37.3245C89.352 36.5651 88.454 35.9627 87.4657 35.5517C86.4774 35.1408 85.4181 34.9292 84.3484 34.9292Z" fill="white"/>
<path d="M57.8466 72.5972L58.956 76.4554L73.1335 76.2043L73.0093 69.1352C72.9109 63.5398 68.9719 58.7139 63.3984 58.8126C57.8249 58.9113 54.281 63.6416 54.3793 69.2371L55.189 76.5221L57.5005 76.4812L57.8466 72.5972Z" fill="#2F2E41"/>
<path d="M64.0319 75.2951C67.545 75.2951 70.393 72.436 70.393 68.9091C70.393 65.3823 67.545 62.5232 64.0319 62.5232C60.5188 62.5232 57.6708 65.3823 57.6708 68.9091C57.6708 72.436 60.5188 75.2951 64.0319 75.2951Z" fill="#FFB6B6"/>
<path d="M76.6935 78.8677L76.5493 81.5538C73.4964 84.7417 69.332 86.6183 64.9303 86.7894C60.5286 86.9606 56.232 85.4131 52.9426 82.4718C52.7956 82.3419 52.6514 82.2061 52.5103 82.0674C53.3924 81.1878 55.8269 79.0153 58.529 78.8146L70.7132 78.0442C70.7132 78.0442 75.3292 77.5011 76.6935 78.8677Z" fill="#E4E4E4"/>
<path d="M70.9954 64.4251C70.987 63.9361 70.8345 63.4605 70.5573 63.0584C70.528 63.0171 70.4985 62.9787 70.4691 62.9404C70.2334 62.6384 69.9314 62.3952 69.5866 62.2298C69.2418 62.0644 68.8635 61.9813 68.4815 61.9869L63.9095 62.0696L59.3404 62.1493C58.6859 62.1624 58.0631 62.4354 57.6085 62.9083C57.1539 63.3813 56.9045 64.0158 56.9148 64.673L58.0027 66.872L58.6289 68.1353L58.7319 68.0763C62.6863 65.8448 64.3035 65.8153 69.5371 67.8904L69.6429 67.9317L70.0575 66.8661L70.9983 64.4487L70.9954 64.4251Z" fill="#2F2E41"/>
<path d="M77.7225 80.199C76.418 81.8735 74.8173 83.2924 73.0006 84.3845L72.7155 79.2544L76.6935 78.8678C76.6935 78.8678 77.1698 78.8678 77.7225 80.199Z" fill="#E4E4E4"/>
<path d="M64.2712 87.0912C60.0221 87.096 55.9199 85.5301 52.7474 82.6924C52.5975 82.5601 52.4495 82.4208 52.3046 82.2782C50.5967 80.6589 49.238 78.705 48.3125 76.5374C47.387 74.3697 46.9144 72.0345 46.924 69.6761C46.924 65.0574 48.7516 60.6278 52.0048 57.3618C55.2581 54.0959 59.6704 52.2611 64.2712 52.2611C68.8719 52.2611 73.2842 54.0959 76.5375 57.3618C79.7907 60.6278 81.6183 65.0574 81.6183 69.6761C81.6328 73.5568 80.3417 77.3286 77.9543 80.3807C76.3328 82.4711 74.2574 84.1622 71.8861 85.3252C69.5148 86.4881 66.9103 87.0921 64.2712 87.0912ZM64.2712 52.8514C59.8279 52.8565 55.5681 54.6307 52.4262 57.7848C49.2844 60.939 47.517 65.2155 47.512 69.6761C47.5029 71.9551 47.9598 74.2118 48.8544 76.3064C49.749 78.401 51.0623 80.2889 52.713 81.8535C52.8535 81.9916 52.9937 82.1237 53.1369 82.2501C54.8513 83.7762 56.8588 84.9336 59.0358 85.651C61.2128 86.3684 63.5131 86.6305 65.7949 86.4213C68.0767 86.2121 70.2916 85.5359 72.3031 84.4345C74.3147 83.3331 76.0802 81.8298 77.4909 80.0172C79.7972 77.0688 81.0444 73.425 81.0303 69.6761C81.0253 65.2155 79.258 60.939 76.1161 57.7848C72.9742 54.6307 68.7144 52.8565 64.2712 52.8514Z" fill="#3F3D56"/>
<path d="M79.8658 111.235H49.3058C49.0011 111.235 48.6994 111.175 48.4179 111.058C48.1363 110.941 47.8805 110.769 47.665 110.553C47.4496 110.337 47.2787 110.08 47.162 109.797C47.0454 109.515 46.9854 109.212 46.9854 108.906C46.9854 108.6 47.0454 108.297 47.162 108.014C47.2787 107.732 47.4496 107.475 47.665 107.259C47.8805 107.042 48.1363 106.871 48.4179 106.754C48.6994 106.637 49.0011 106.576 49.3058 106.576H79.8658C80.1705 106.576 80.4723 106.637 80.7538 106.754C81.0353 106.871 81.2911 107.042 81.5066 107.259C81.7221 107.475 81.893 107.732 82.0096 108.014C82.1262 108.297 82.1862 108.6 82.1862 108.906C82.1862 109.212 82.1262 109.515 82.0096 109.797C81.893 110.08 81.7221 110.337 81.5066 110.553C81.2911 110.769 81.0353 110.941 80.7538 111.058C80.4723 111.175 80.1705 111.235 79.8658 111.235Z" fill="#2BC990"/>
<path d="M79.8658 118.615H49.3058C48.6904 118.615 48.1002 118.369 47.665 117.932C47.2299 117.496 46.9854 116.903 46.9854 116.285C46.9854 115.667 47.2299 115.075 47.665 114.638C48.1002 114.201 48.6904 113.956 49.3058 113.956H79.8658C80.4812 113.956 81.0714 114.201 81.5066 114.638C81.9418 115.075 82.1862 115.667 82.1862 116.285C82.1862 116.903 81.9418 117.496 81.5066 117.932C81.0714 118.369 80.4812 118.615 79.8658 118.615Z" fill="#2BC990"/>
<path d="M72.4263 103.767H56.7457C56.1302 103.767 55.54 103.521 55.1049 103.084C54.6697 102.647 54.4252 102.055 54.4252 101.437C54.4252 100.819 54.6697 100.227 55.1049 99.7898C55.54 99.3529 56.1302 99.1075 56.7457 99.1075H72.4263C73.0418 99.1075 73.632 99.3529 74.0671 99.7898C74.5023 100.227 74.7468 100.819 74.7468 101.437C74.7468 102.055 74.5023 102.647 74.0671 103.084C73.632 103.521 73.0418 103.767 72.4263 103.767Z" fill="#2BC990"/>
<path d="M176.706 158H0.29402C0.216041 158 0.14126 157.969 0.0861207 157.914C0.0309813 157.858 0 157.783 0 157.705C0 157.627 0.0309813 157.551 0.0861207 157.496C0.14126 157.441 0.216041 157.41 0.29402 157.41H176.706C176.784 157.41 176.859 157.441 176.914 157.496C176.969 157.551 177 157.627 177 157.705C177 157.783 176.969 157.858 176.914 157.914C176.859 157.969 176.784 158 176.706 158Z" fill="#CACACA"/>
</g>
<defs>
<clipPath id="clip0_101_3">
<rect width="177" height="158" fill="white"/>
</clipPath>
</defs>
</svg>
